HIERARCHY
ROOT Hips
{
	OFFSET 0.000000 0.000000 0.000000
	CHANNELS 6 Xposition Yposition Zposition Zrotation Yrotation Xrotation 
	JOINT LowerBack
	{
		OFFSET 0.000000 0.000000 0.000000
		CHANNELS 3 Zrotation Yrotation Xrotation
		JOINT Spine
		{
			OFFSET 0.028270 2.035590 -0.193380
			CHANNELS 3 Zrotation Yrotation Xrotation
			JOINT Spine1
			{
				OFFSET 0.056720 2.048850 -0.042750
				CHANNELS 3 Zrotation Yrotation Xrotation
				JOINT Neck
				{
					OFFSET 0.000000 0.000000 0.000000
					CHANNELS 3 Zrotation Yrotation Xrotation
					JOINT Neck1
					{
						OFFSET -0.054170 1.746240 0.172020
						CHANNELS 3 Zrotation Yrotation Xrotation
						JOINT Head
						{
							OFFSET 0.104070 1.761360 -0.123970
							CHANNELS 3 Zrotation Yrotation Xrotation
							End Site
							{
								OFFSET 0.000000 0.000000 0.000000
							}
						}
					}
				}
				JOINT LeftShoulder
				{
					OFFSET 0.000000 0.000000 0.000000
					CHANNELS 3 Zrotation Yrotation Xrotation
					JOINT LeftArm
					{
						OFFSET 3.362410 1.200890 -0.311210
						CHANNELS 3 Zrotation Yrotation Xrotation
						JOINT LeftForeArm
						{
							OFFSET 4.983000 -0.000000 -0.000000
							CHANNELS 3 Zrotation Yrotation Xrotation
							JOINT LeftHand
							{
								OFFSET 3.483560 -0.000000 -0.000000
								CHANNELS 3 Zrotation Yrotation Xrotation
								JOINT LeftFingerBase
								{
									OFFSET 0.000000 0.000000 0.000000
									CHANNELS 3 Zrotation Yrotation Xrotation
									JOINT LeftHandIndex1
									{
										OFFSET 0.715260 -0.000000 -0.000000
										CHANNELS 3 Zrotation Yrotation Xrotation
										End Site
										{
											OFFSET 0.000000 0.000000 0.000000
										}
									}
								}
								JOINT LThumb
								{
									OFFSET 0.000000 0.000000 0.000000
									CHANNELS 3 Zrotation Yrotation Xrotation
									End Site
									{
										OFFSET 0.000000 0.000000 0.000000
									}
								}
							}
						}
					}
				}
				JOINT RightShoulder
				{
					OFFSET 0.000000 0.000000 0.000000
					CHANNELS 3 Zrotation Yrotation Xrotation
					JOINT RightArm
					{
						OFFSET -3.136600 1.374050 -0.404650
						CHANNELS 3 Zrotation Yrotation Xrotation
						JOINT RightForeArm
						{
							OFFSET -5.241900 -0.000000 -0.000000
							CHANNELS 3 Zrotation Yrotation Xrotation
							JOINT RightHand
							{
								OFFSET -3.444170 -0.000000 -0.000000
								CHANNELS 3 Zrotation Yrotation Xrotation
								JOINT RightFingerBase
								{
									OFFSET 0.000000 0.000000 0.000000
									CHANNELS 3 Zrotation Yrotation Xrotation
									JOINT RightHandIndex1
									{
										OFFSET -0.622530 -0.000000 -0.000000
										CHANNELS 3 Zrotation Yrotation Xrotation
										End Site
										{
											OFFSET 0.000000 0.000000 0.000000
										}
									}
								}
								JOINT RThumb
								{
									OFFSET 0.000000 0.000000 0.000000
									CHANNELS 3 Zrotation Yrotation Xrotation
									End Site
									{
										OFFSET 0.000000 0.000000 0.000000
									}
								}
							}
						}
					}
				}
			}
		}
	}
}
}
MOTION
Frames: 17
Frame Time: 0.008333
2.686416 17.036860 0.997731 -153.416426 -80.277925 164.642448 2.125792 1.647395 -9.738492 -0.897485 0.934757 -4.756824 -8.022033 0.896283 0.512492 12.141677 -5.904134 -6.471454 -4.104692 -0.346294 0.358828 0.000000 0.000000 0.000000 -3.766945 16.257196 1.191097 -53.375525 9.663269 11.268950 -3.517774 -26.598020 0.004647 5.528566 2.652294 0.135669 -0.111811 -0.092370 -0.000000 0.000000 0.000000 0.000000 0.000000 0.000000 0.000000 19.411682 1.382579 -1.490620 62.650807 13.642949 14.575875 0.768012 69.707966 -0.014214 -3.904337 5.445233 -0.197941 0.051088 -0.329950 -0.000000 0.000000 0.000000 0.000000 0.000000 0.000000 0.000000 
2.547003 17.016508 0.989354 -153.003979 -80.493991 164.241175 2.034795 1.844255 -9.680057 -0.937092 1.143378 -4.744047 -8.038181 1.109659 0.548763 12.169060 -5.663132 -6.524472 -4.066506 -0.342270 0.340999 0.000000 0.000000 0.000000 -3.705731 17.048573 1.202332 -52.717580 9.570105 10.569098 -3.569849 -26.717819 0.004838 5.582254 2.586837 0.133885 -0.116621 -0.094034 -0.000000 0.000000 0.000000 0.000000 0.000000 0.000000 0.000000 19.235664 1.810141 -1.513227 62.481609 14.262696 14.802359 0.749591 70.347642 -0.014604 -3.836973 5.375881 -0.192337 0.048438 -0.336989 -0.000000 0.000000 0.000000 0.000000 0.000000 0.000000 0.000000 
2.406417 16.994779 0.981643 -152.509896 -80.731981 163.734688 1.950791 2.033472 -9.602490 -0.974909 1.344585 -4.728352 -8.054992 1.315894 0.582052 12.195587 -5.442651 -6.576751 -4.030419 -0.338428 0.323433 0.000000 0.000000 0.000000 -3.636484 17.793355 1.214331 -52.105138 9.501623 9.759507 -3.619458 -26.876708 0.005029 5.632409 2.509450 0.131402 -0.121364 -0.095327 -0.000000 0.000000 0.000000 0.000000 0.000000 0.000000 0.000000 19.068830 2.209807 -1.533594 62.307136 14.867871 14.982204 0.732526 70.983191 -0.015019 -3.781468 5.328575 -0.188034 0.045926 -0.344182 -0.000000 0.000000 0.000000 0.000000 0.000000 0.000000 0.000000 
2.264881 16.971667 0.974446 -151.959619 -80.990407 163.138993 1.868992 2.215239 -9.498906 -1.012003 1.539355 -4.708305 -8.073096 1.515981 0.612747 12.222629 -5.242187 -6.627995 -3.996644 -0.334772 0.306104 0.000000 0.000000 0.000000 -3.556427 18.496396 1.227136 -51.535782 9.453205 8.865018 -3.665756 -27.078357 0.005196 5.673514 2.427433 0.128318 -0.126059 -0.096248 -0.000000 0.000000 0.000000 0.000000 0.000000 0.000000 0.000000 18.914650 2.582765 -1.552179 62.130294 15.458861 15.117041 0.716908 71.612430 -0.015447 -3.732997 5.306080 -0.185030 0.043476 -0.351567 -0.000000 0.000000 0.000000 0.000000 0.000000 0.000000 0.000000 
2.122194 16.947139 0.967769 -151.335261 -81.263503 162.439177 1.790829 2.390900 -9.371189 -1.048173 1.728739 -4.682090 -8.092565 1.711344 0.649695 12.252624 -5.055668 -6.684101 -3.964416 -0.331150 0.287215 0.000000 0.000000 0.000000 -3.453433 19.210912 1.240153 -51.019443 9.348421 7.925404 -3.709873 -27.275279 0.005299 5.702839 2.341852 0.124734 -0.130835 -0.096532 -0.000000 0.000000 0.000000 0.000000 0.000000 0.000000 0.000000 18.773543 2.936449 -1.575021 61.952508 16.030402 15.204249 0.701914 72.240862 -0.015887 -3.687651 5.307137 -0.182928 0.040898 -0.359100 -0.000000 0.000000 0.000000 0.000000 0.000000 0.000000 0.000000 
1.978493 16.921290 0.961455 -150.649406 -81.547315 161.644081 1.716578 2.561355 -9.217948 -1.083497 1.913543 -4.651845 -8.114522 1.902321 0.683257 12.282749 -4.880317 -6.735882 -3.934913 -0.327779 0.269416 0.000000 0.000000 0.000000 -3.336175 19.889004 1.254137 -50.543495 9.266673 6.937826 -3.749129 -27.525489 0.005335 5.713115 2.263708 0.121151 -0.135563 -0.096477 -0.000000 0.000000 0.000000 0.000000 0.000000 0.000000 0.000000 18.645356 3.273884 -1.597580 61.780111 16.575683 15.245756 0.688247 72.860891 -0.016318 -3.641704 5.332415 -0.181628 0.038217 -0.366812 -0.000000 0.000000 0.000000 0.000000 0.000000 0.000000 0.000000 
1.833531 16.894157 0.955492 -149.893081 -81.835431 160.751728 1.646892 2.727670 -9.043709 -1.117934 2.094499 -4.616741 -8.139233 2.089897 0.720541 12.314519 -4.709346 -6.787960 -3.907610 -0.324546 0.251309 0.000000 0.000000 0.000000 -3.196688 20.575388 1.268383 -50.112844 9.147411 5.936186 -3.784507 -27.791345 0.005285 5.703951 2.191879 0.117367 -0.140331 -0.095907 -0.000000 0.000000 0.000000 0.000000 0.000000 0.000000 0.000000 18.529969 3.602875 -1.624935 61.615965 17.090536 15.240129 0.675351 73.474230 -0.016745 -3.593101 5.378491 -0.180729 0.035290 -0.374627 -0.000000 0.000000 0.000000 0.000000 0.000000 0.000000 0.000000 
1.687734 16.865997 0.949490 -149.145215 -82.128682 159.829984 1.573016 2.888363 -8.839549 -1.153213 2.271333 -4.578816 -8.168055 2.273063 0.746990 12.345216 -4.542232 -6.828401 -3.884686 -0.321778 0.236288 0.000000 0.000000 0.000000 -3.052395 21.197019 1.284323 -49.703789 9.109233 4.916383 -3.812183 -28.160573 0.005161 5.668258 2.138354 0.113984 -0.144929 -0.095333 -0.000000 0.000000 0.000000 0.000000 0.000000 0.000000 0.000000 18.432335 3.923948 -1.648917 61.466743 17.575053 15.195495 0.664395 74.066707 -0.017144 -3.542158 5.444630 -0.180332 0.032300 -0.382578 -0.000000 0.000000 0.000000 0.000000 0.000000 0.000000 0.000000 
1.540408 16.836871 0.943919 -148.305459 -82.409712 158.808433 1.513361 3.047625 -8.635190 -1.185932 2.444897 -4.540339 -8.200679 2.453169 0.776327 12.374883 -4.366840 -6.866500 -3.864681 -0.319266 0.221823 0.000000 0.000000 0.000000 -2.893236 21.837184 1.299358 -49.330293 9.043109 3.913761 -3.834886 -28.555586 0.004948 5.606878 2.094072 0.110600 -0.149515 -0.094415 -0.000000 0.000000 0.000000 0.000000 0.000000 0.000000 0.000000 18.345336 4.251868 -1.679812 61.331657 18.015001 15.111684 0.654039 74.649443 -0.017552 -3.489884 5.524086 -0.180235 0.029038 -0.390512 -0.000000 0.000000 0.000000 0.000000 0.000000 0.000000 0.000000 
1.391803 16.807090 0.938429 -147.484539 -82.681411 157.788688 1.455048 3.203043 -8.421076 -1.218610 2.614529 -4.502055 -8.238063 2.629019 0.798920 12.402246 -4.184122 -6.895045 -3.849360 -0.317237 0.209920 0.000000 0.000000 0.000000 -2.734814 22.448001 1.314278 -48.970107 9.028577 2.932770 -3.850183 -29.035969 0.004663 5.515965 2.066918 0.107616 -0.153935 -0.093569 -0.000000 0.000000 0.000000 0.000000 0.000000 0.000000 0.000000 18.275504 4.585500 -1.711428 61.214947 18.416176 15.000696 0.645306 75.209278 -0.017963 -3.438975 5.615752 -0.180438 0.025710 -0.398434 -0.000000 0.000000 0.000000 0.000000 0.000000 0.000000 0.000000 
1.241673 16.776898 0.933079 -146.717210 -82.938549 156.813193 1.399036 3.354583 -8.205247 -1.251069 2.779717 -4.465444 -8.280239 2.800016 0.815280 12.425921 -3.991567 -6.914528 -3.839002 -0.315717 0.200495 0.000000 0.000000 0.000000 -2.585024 23.037225 1.327992 -48.615832 9.066333 1.986831 -3.858049 -29.601006 0.004327 5.395048 2.052560 0.104734 -0.158158 -0.092926 -0.000000 0.000000 0.000000 0.000000 0.000000 0.000000 0.000000 18.222928 4.928256 -1.744273 61.118119 18.779592 14.874147 0.638275 75.742986 -0.018385 -3.391372 5.716396 -0.181041 0.022371 -0.406282 -0.000000 0.000000 0.000000 0.000000 0.000000 0.000000 0.000000 
1.089596 16.746429 0.928254 -145.990634 -83.172258 155.884681 1.353285 3.503899 -8.004016 -1.281892 2.940596 -4.431810 -8.326857 2.966536 0.832447 12.445284 -3.784141 -6.929924 -3.832924 -0.314605 0.192211 0.000000 0.000000 0.000000 -2.442503 23.646596 1.338504 -48.273102 9.102479 1.085527 -3.860717 -30.205224 0.003952 5.245463 2.042830 0.101453 -0.162250 -0.092355 -0.000000 0.000000 0.000000 0.000000 0.000000 0.000000 0.000000 18.184078 5.286203 -1.783258 61.040467 19.100648 14.740065 0.632538 76.254227 -0.018830 -3.347458 5.822511 -0.181844 0.018942 -0.413956 -0.000000 0.000000 0.000000 0.000000 0.000000 0.000000 0.000000 
0.935453 16.715884 0.923986 -145.381739 -83.384348 155.079006 1.312920 3.649390 -7.816328 -1.311891 3.096163 -4.401448 -8.377500 3.127412 0.848412 12.458513 -3.566047 -6.940452 -3.831401 -0.313938 0.185323 0.000000 0.000000 0.000000 -2.318432 24.263489 1.345057 -47.931617 9.161194 0.229667 -3.857846 -30.860576 0.003563 5.069577 2.035428 0.097971 -0.166144 -0.092054 -0.000000 0.000000 0.000000 0.000000 0.000000 0.000000 0.000000 18.159921 5.654686 -1.826095 60.984018 19.388464 14.615074 0.628606 76.735047 -0.019288 -3.307611 5.933531 -0.182946 0.015542 -0.421425 0.000000 0.000000 0.000000 0.000000 0.000000 0.000000 0.000000 
0.778980 16.685438 0.920461 -144.931283 -83.576539 154.440512 1.276730 3.790142 -7.644958 -1.341151 3.245574 -4.374426 -8.431296 3.281817 0.864706 12.464158 -3.341855 -6.947886 -3.834020 -0.313667 0.179376 0.000000 0.000000 0.000000 -2.217760 24.890801 1.346630 -47.589047 9.239276 -0.582574 -3.850104 -31.555975 0.003184 4.872205 2.026205 0.093991 -0.169824 -0.092071 -0.000000 0.000000 0.000000 0.000000 0.000000 0.000000 0.000000 18.149037 6.028384 -1.872487 60.950037 19.650541 14.513170 0.626678 77.180538 -0.019742 -3.270384 6.049007 -0.184247 0.012221 -0.428639 0.000000 0.000000 0.000000 0.000000 0.000000 0.000000 0.000000 
0.620267 16.655131 0.917834 -144.662360 -83.752862 153.991041 1.243688 3.924764 -7.491621 -1.369656 3.387554 -4.350483 -8.487153 3.428540 0.882840 12.461035 -3.118331 -6.954326 -3.840105 -0.313721 0.173821 0.000000 0.000000 0.000000 -2.143588 25.529456 1.342355 -47.246553 9.331401 -1.357517 -3.838195 -32.276312 0.002840 4.660963 2.010458 0.089511 -0.173271 -0.092410 -0.000000 0.000000 0.000000 0.000000 0.000000 0.000000 0.000000 18.149433 6.399432 -1.922138 60.940332 19.896593 14.447315 0.626836 77.585207 -0.020166 -3.232760 6.168683 -0.185549 0.008997 -0.435553 0.000000 0.000000 0.000000 0.000000 0.000000 0.000000 0.000000 
0.458888 16.625018 0.916347 -144.520867 -83.914709 153.688361 1.218832 4.053101 -7.364783 -1.396305 3.521192 -4.329777 -8.543827 3.566877 0.907526 12.448460 -2.903609 -6.963919 -3.848506 -0.313974 0.167590 0.000000 0.000000 0.000000 -2.093231 26.189268 1.331128 -46.911585 9.415205 -2.105731 -3.823518 -32.992115 0.002550 4.445822 1.982606 0.084531 -0.176517 -0.092952 -0.000000 0.000000 0.000000 0.000000 0.000000 0.000000 0.000000 18.157487 6.757894 -1.975783 60.956688 20.134554 14.427914 0.629005 77.945450 -0.020527 -3.190646 6.291543 -0.186547 0.005865 -0.442082 0.000000 0.000000 0.000000 0.000000 0.000000 0.000000 0.000000 
0.295264 16.595170 0.915555 -144.594146 -84.078960 153.605238 1.185663 4.170900 -7.251097 -1.423940 3.644559 -4.311080 -8.600266 3.694652 0.933430 12.426858 -2.708955 -6.974260 -3.859247 -0.314450 0.161300 0.000000 0.000000 0.000000 -2.070712 26.831756 1.314428 -46.576492 9.534716 -2.835654 -3.804593 -33.725400 0.002340 4.240179 1.945498 0.079453 -0.179466 -0.093848 -0.000000 0.000000 0.000000 0.000000 0.000000 0.000000 0.000000 18.176619 7.090441 -2.027981 61.004816 20.378559 14.463411 0.633530 78.249633 -0.020773 -3.139239 6.417689 -0.186945 0.002933 -0.448227 0.000000 0.000000 0.000000 0.000000 0.000000 0.000000 0.000000 
